:SAMPLES-PER-SECOND 30
:FULLY-SPECIFIED
:DEGREES
313
root  43.8211 35.7679 7.15825 -6.80008 87.9381 -48.4336
RightUpLeg  -80.4654 -15.6 21.9754
RightLeg  42.7819 2.18893 1.86216
RightFoot  -0.534097 0.943721 -9.97907
RightToes  0.00048216 0.542163 -0.142577
Spine  74.489 -5.50376 6.5902
Spine1  4.76399 1.59115 -10.8349
HEad  -47.3883 -7.15877 2.17861
LeftShoulder1  4.52642 -23.3168 -9.42424
LeftArm  -108.342 -62.8842 33.9351
LeftForeArm  5.01007 -22.6563 -4.3701
LeftHand  -0.25398 0.0180481 5.50724
RightShoulder  2.7035 14.1541 7.79685
RightArm  -90.481 47.5355 -21.3669
RightForeArm  -12.242 24.3929 5.82948
RightHand  1.23026 5.97798 12.0585
LeftUpLeg  -80.3803 17.3177 -16.434
LeftLeg  43.9972 -1.12012 -0.754085
LeftFoot  -2.93243 -0.256929 3.72922
LeftToes  1.06246e-005 4.65856e-005 -8.18501e-006
314
root  43.5999 35.8808 6.97908 -8.99622 87.7267 -49.5187
RightUpLeg  -79.0616 -16.2091 22.1253
RightLeg  41.3922 2.47116 2.03522
RightFoot  -0.0752686 1.03234 -10.4303
RightToes  0.00048216 0.542163 -0.142577
Spine  74.1128 -5.49174 6.59577
Spine1  4.49064 1.59075 -10.9198
HEad  -46.9117 -6.85489 1.63941
LeftShoulder1  4.81594 -23.5955 -10.4112
LeftArm  -103.254 -63.0157 30.4547
LeftForeArm  4.88423 -24.0161 -4.90468
LeftHand  -0.25398 0.0180481 5.50724
RightShoulder  2.83879 14.4493 8.35644
RightArm  -87.055 46.7576 -19.4641
RightForeArm  -11.2327 25.876 6.116
RightHand  1.22776 5.22943 12.9344
LeftUpLeg  -79.239 17.369 -16.2547
LeftLeg  43.3458 -0.86408 -0.473023
LeftFoot  -2.20967 -0.383212 4.96207
LeftToes  1.06246e-005 4.65856e-005 -8.18501e-006
315
root  43.3222 36.0494 6.7802 -11.6125 87.6377 -50.5231
RightUpLeg  -77.1108 -17.0292 21.8835
RightLeg  39.7929 2.77314 2.18851
RightFoot  0.701208 1.10081 -10.3563
RightToes  0.00048216 0.542163 -0.142577
Spine  73.7365 -5.57471 6.55865
Spine1  4.41553 1.52283 -11.0963
HEad  -46.1405 -6.49323 0.905207
LeftShoulder1  4.97078 -23.9168 -10.8005
LeftArm  -97.2995 -62.9124 26.3299
LeftForeArm  3.54735 -24.7799 -5.11936
LeftHand  -0.25398 0.0180481 5.50724
RightShoulder  2.99081 14.7661 8.97697
RightArm  -81.911 45.7875 -16.8234
RightForeArm  -12.9384 27.6173 6.61302
RightHand  1.08955 4.45724 12.4108
LeftUpLeg  -77.3313 17.4742 -16.0205
LeftLeg  42.2084 -0.726973 -0.311539
LeftFoot  -1.47735 -0.51035 6.01459
LeftToes  1.06246e-005 4.65856e-005 -8.18501e-006
316
root  42.9931 36.2424 6.57358 -12.4923 87.666 -49.5662
RightUpLeg  -74.8545 -17.839 21.1457
RightLeg  38.0425 2.98549 2.22848
RightFoot  1.61079 1.10319 -9.59288
RightToes  0.00048216 0.542163 -0.142577
Spine  73.0145 -5.50213 6.41871
Spine1  4.61648 1.4629 -11.0545
HEad  -45.171 -6.04919 -0.130369
LeftShoulder1  5.00215 -24.009 -10.8573
LeftArm  -90.649 -62.9558 20.7769
LeftForeArm  1.63737 -25.4626 -5.3721
LeftHand  -0.25398 0.0180481 5.50724
RightShoulder  3.16318 15.093 9.68783
RightArm  -75.4885 44.3008 -13.2888
RightForeArm  -16.476 29.9584 7.36851
RightHand  0.903764 3.42004 11.5551
LeftUpLeg  -75.0497 17.6382 -15.9387
LeftLeg  40.7017 -0.753864 -0.307842
LeftFoot  -0.682946 -0.622883 6.71376
LeftToes  1.06246e-005 4.65856e-005 -8.18501e-006
317
root  42.6251 36.446 6.35071 -16.0965 87.652 -51.1352
RightUpLeg  -72.2084 -18.6526 20.3589
RightLeg  35.969 3.23237 2.25186
RightFoot  2.59566 1.11434 -8.94248
RightToes  0.00048216 0.542163 -0.142577
Spine  71.8968 -5.2318 6.2502
Spine1  5.11469 1.52602 -10.7369
HEad  -44.2364 -5.42166 -1.55047
LeftShoulder1  5.05121 -23.8166 -11.2
LeftArm  -82.6508 -62.9784 13.8086
LeftForeArm  0.00315508 -26.7036 -5.74196
LeftHand  -0.25398 0.0180481 5.50724
RightShoulder  3.31508 15.2564 10.4233
RightArm  -68.8268 42.4655 -9.15189
RightForeArm  -20.1951 32.8605 8.3217
RightHand  0.710896 1.95216 11.0149
LeftUpLeg  -72.5371 17.9633 -15.8675
LeftLeg  38.9754 -0.872442 -0.378357
LeftFoot  0.129809 -0.759352 7.53845
LeftToes  1.06246e-005 4.65856e-005 -8.18501e-006
318
root  42.2296 36.6739 6.10008 -25.5803 87.5055 -58.2662
RightUpLeg  -69.1267 -19.6911 19.9372
RightLeg  33.5154 3.67406 2.3614
RightFoot  3.99165 1.25676 -9.09907
RightToes  0.00048216 0.542163 -0.142577
Spine  70.578 -4.93919 6.15486
Spine1  5.84597 1.6689 -10.3556
HEad  -43.3194 -4.55653 -3.40945
LeftShoulder1  5.20084 -23.5862 -11.9844
LeftArm  -73.2566 -62.4487 6.28111
LeftForeArm  -1.23841 -28.2371 -6.16909
LeftHand  -0.25398 0.0180481 5.50724
RightShoulder  3.44746 15.1796 11.2908
RightArm  -62.3196 40.6949 -4.81992
RightForeArm  -23.6279 35.8123 9.33989
RightHand  0.498511 0.163061 10.4301
LeftUpLeg  -69.6153 18.4351 -15.512
LeftLeg  37.0141 -1.01756 -0.453379
LeftFoot  0.943928 -0.919794 8.47709
LeftToes  1.06246e-005 4.65856e-005 -8.18501e-006
319
root  41.8153 36.9294 5.83054 -37.5797 87.369 -67.5131
RightUpLeg  -65.6499 -21.0635 19.5116
RightLeg  30.9052 4.26388 2.50858
RightFoot  5.72507 1.45404 -9.40389
RightToes  0.00048216 0.542163 -0.142577
Spine  69.2535 -4.68915 6.08076
Spine1  6.62153 1.72138 -9.88007
HEad  -42.1697 -3.45012 -5.75971
LeftShoulder1  5.41117 -23.4235 -12.9721
LeftArm  -62.7976 -61.1353 -1.58576
LeftForeArm  -2.49382 -29.6056 -6.57
LeftHand  -0.25398 0.0180481 5.50724
RightShoulder  3.62631 15.0232 12.5313
RightArm  -55.5127 38.8641 -0.548958
RightForeArm  -26.7032 38.4367 10.3141
RightHand  0.310192 -1.38365 9.3988
LeftUpLeg  -66.1007 18.8957 -14.8818
LeftLeg  34.7994 -1.21401 -0.545343
LeftFoot  1.81412 -1.05297 9.01864
LeftToes  1.06246e-005 4.65856e-005 -8.18501e-006
320
root  41.3909 37.1787 5.55933 -49.6831 87.413 -76.5458
RightUpLeg  -61.7977 -22.5467 18.451
RightLeg  28.4009 4.75789 2.55022
RightFoot  7.23451 1.5292 -9.02281
RightToes  0.00048216 0.542163 -0.142577
Spine  67.8044 -4.34225 5.89356
Spine1  7.35903 1.62595 -9.02198
HEad  -40.6194 -2.108 -8.6328
LeftShoulder1  5.68526 -23.2491 -14.2397
LeftArm  -51.9237 -58.9089 -9.89299
LeftForeArm  -3.4521 -31.1024 -7.00103
LeftHand  -0.25398 0.0180481 5.50724
RightShoulder  3.87941 14.8767 14.2203
RightArm  -48.3947 36.4685 3.47541
RightForeArm  -28.9475 41.0203 11.3147
RightHand  0.191823 -2.34461 8.14973
LeftUpLeg  -62.1375 19.2976 -14.2976
LeftLeg  32.4858 -1.53426 -0.698835
LeftFoot  2.73214 -1.16401 9.2731
LeftToes  1.06246e-005 4.65856e-005 -8.18501e-006
321
root  40.9577 37.4011 5.28043 -61.1161 87.2647 -84.7014
RightUpLeg  -57.4188 -23.7788 17.0304
RightLeg  25.7618 5.05139 2.42157
RightFoot  8.62207 1.51484 -8.24811
RightToes  0.00048216 0.542163 -0.142577
Spine  66.1682 -3.89025 5.6196
Spine1  8.1134 1.60006 -8.04957
HEad  -38.7474 -0.40969 -12.0553
LeftShoulder1  6.14789 -23.0122 -16.3456
LeftArm  -42.1045 -55.5487 -17.2147
LeftForeArm  -3.5174 -33.3693 -7.60816
LeftHand  -0.25398 0.0180481 5.50724
RightShoulder  4.15067 14.6144 16.1969
RightArm  -41.9345 33.4456 7.31293
RightForeArm  -29.9148 44.2299 12.6053
RightHand  0.10631 -3.17776 7.02989
LeftUpLeg  -58.0302 20.003 -13.7165
LeftLeg  30.2566 -2.05814 -0.949935
LeftFoot  3.60868 -1.31609 9.8349
LeftToes  1.06246e-005 4.65856e-005 -8.18501e-006
322
root  40.5151 37.6151 4.99651 -67.5986 86.668 -87.9852
RightUpLeg  -52.7857 -24.7467 15.9501
RightLeg  22.5709 5.4754 2.25468
RightFoot  10.4356 1.47067 -7.26711
RightToes  0.00048216 0.542163 -0.142577
Spine  64.5059 -3.49346 5.2957
Spine1  8.62364 1.672 -7.46794
HEad  -36.7566 2.07082 -16.0446
LeftShoulder1  6.91113 -22.6094 -19.8917
LeftArm  -34.3668 -51.0094 -21.6396
LeftForeArm  -2.90149 -36.6659 -8.51947
LeftHand  -0.25398 0.0180481 5.50724
RightShoulder  4.41837 14.218 18.3908
RightArm  -36.7841 30.0384 11.2391
RightForeArm  -29.4686 48.375 14.4529
RightHand  0.0096074 -4.48709 6.00203
LeftUpLeg  -54.0911 21.2249 -13.0045
LeftLeg  27.9905 -2.87488 -1.31352
LeftFoot  4.52641 -1.5164 10.6491
LeftToes  1.06246e-005 4.65856e-005 -8.18501e-006
323
root  40.0738 37.8338 4.7533 -70.2904 86.1297 -87.9748
RightUpLeg  -48.0932 -24.6645 13.9603
RightLeg  19.0331 5.22476 2.34483
RightFoot  11.9337 1.11953 -5.03714
RightToes  0.00048216 0.542163 -0.142577
Spine  63.01 -3.19593 4.64471
Spine1  8.11503 1.449 -7.19236
HEad  -34.8844 5.93104 -20.3646
LeftShoulder1  7.83571 -21.6811 -24.8222
LeftArm  -28.3457 -45.295 -23.2441
LeftForeArm  -1.97575 -41.0337 -9.87078
LeftHand  -0.25398 0.0180481 5.50724
RightShoulder  4.76775 13.9484 20.957
RightArm  -32.3902 26.1409 15.2035
RightForeArm  -27.7108 53.1459 16.994
RightHand  -0.085021 -6.2305 4.83318
LeftUpLeg  -50.6018 22.625 -12.5524
LeftLeg  25.4238 -3.99773 -1.73228
LeftFoot  5.74281 -1.72295 11.2
LeftToes  1.06246e-005 4.65856e-005 -8.18501e-006
324
root  39.6256 38.0516 4.56994 -73.2735 85.7726 -88.416
RightUpLeg  -42.5244 -22.0385 9.42139
RightLeg  16.203 2.7359 2.64858
RightFoot  11.2916 0.309729 -1.10588
RightToes  0.00048216 0.542163 -0.142577
Spine  61.2168 -2.80538 3.88598
Spine1  7.84246 1.29869 -6.79702
HEad  -33.881 10.3373 -24.6006
LeftShoulder1  8.71287 -20.7044 -29.8447
LeftArm  -24.5042 -39.0716 -23.6452
LeftForeArm  -0.0357569 -46.2031 -11.6956
LeftHand  -0.25398 0.0180481 5.50724
RightShoulder  5.04727 13.5342 23.4132
RightArm  -28.8787 21.847 18.4664
RightForeArm  -25.1046 57.8935 20.2179
RightHand  -0.137628 -7.96858 3.39099
LeftUpLeg  -47.2549 24.0358 -12.2303
LeftLeg  22.7132 -5.24183 -2.07024
LeftFoot  7.28843 -1.93702 11.4946
LeftToes  1.06246e-005 4.65856e-005 -8.18501e-006
325
root  39.1492 38.2387 4.44703 -77.7787 85.3277 -90.1924
RightUpLeg  -38.3202 -20.5632 7.56324
RightLeg  16.8519 3.00286 1.95201
RightFoot  7.73096 -0.374491 2.54734
RightToes  0.00048216 0.542163 -0.142577
Spine  58.9035 -2.31378 3.47073
Spine1  8.48479 1.49658 -6.31626
HEad  -33.6749 14.3293 -28.1555
LeftShoulder1  9.4759 -20.1555 -33.9408
LeftArm  -22.6478 -32.6962 -24.0276
LeftForeArm  3.13014 -51.6528 -14.0328
LeftHand  -0.25398 0.0180481 5.50724
RightShoulder  5.21526 12.8504 25.7899
RightArm  -26.1095 17.5016 20.5229
RightForeArm  -22.3359 62.18 24.1187
RightHand  -0.131356 -9.47579 1.70421
LeftUpLeg  -43.8154 25.4651 -11.5814
LeftLeg  20.142 -6.46343 -2.28622
LeftFoot  9.0362 -2.16578 11.6992
LeftToes  1.06246e-005 4.65856e-005 -8.18501e-006
326
root  38.6342 38.3875 4.38498 -82.2688 84.637 -91.7321
RightUpLeg  -34.9008 -18.2272 6.37577
RightLeg  22.2323 1.92102 0.480257
RightFoot  2.9443 -0.479458 3.92825
RightToes  0.00048216 0.542163 -0.142577
Spine  57.2844 -2.26689 3.3144
Spine1  7.96569 1.43756 -6.62907
HEad  -33.5693 18.6223 -30.4055
LeftShoulder1  9.701 -19.2012 -36.5811
LeftArm  -21.744 -25.3628 -24.2993
LeftForeArm  6.75507 -57.2952 -17.1995
LeftHand  -0.25398 0.0180481 5.50724
RightShoulder  5.49047 12.3967 28.5229
RightArm  -23.0319 13.1117 22.0945
RightForeArm  -19.1733 65.964 28.846
RightHand  -0.0741177 -10.7008 -0.0732607
LeftUpLeg  -40.056 26.4797 -9.86603
LeftLeg  17.7687 -7.10077 -2.59045
LeftFoot  10.8467 -2.32479 11.4797
LeftToes  1.06246e-005 4.65856e-005 -8.18501e-006
327
root  38.104 38.4769 4.40847 -87.6676 84.1245 -94.1009
RightUpLeg  -31.4012 -13.9987 4.501
RightLeg  30.1824 -1.59049 -1.23419
RightFoot  -1.07543 -0.364288 3.96596
RightToes  0.00048216 0.542163 -0.142577
Spine  55.7871 -2.23656 3.00571
Spine1  7.21692 1.17436 -6.84475
HEad  -33.273 22.7308 -31.792
LeftShoulder1  9.81745 -18.1017 -39.2033
LeftArm  -21.3749 -18.2065 -23.1758
LeftForeArm  10.0027 -62.1326 -20.9576
LeftHand  -0.25398 0.0180481 5.50724
RightShoulder  5.72505 12.1092 30.7036
RightArm  -20.1358 8.73938 23.6574
RightForeArm  -14.6625 69.2636 34.5588
RightHand  0.015369 -11.5014 -1.80676
LeftUpLeg  -35.752 25.8215 -6.65051
LeftLeg  15.6993 -5.96342 -3.33094
LeftFoot  12.5252 -2.38381 10.8795
LeftToes  1.06246e-005 4.65856e-005 -8.18501e-006
